<svg width="98402" height="98300" viewBox="0 0 9840200 9830000" xmlns="http://www.w3.org/2000/svg">
<path fill="green" stroke="red" stroke-width="1" d="
M 97803 50388 
L 97803 51592 
L 97560 51592 
L 97560 52829 
L 98065 52829 
L 98065 54043 
L 97946 54043 
L 97946 55285 
L 98089 55285 
L 98089 56406 
L 97235 56406 
L 97235 57723 
L 97815 57723 
L 97815 58870 
L 97273 58870 
L 97273 59942 
L 96461 59942 
L 96461 61161 
L 96382 61161 
L 96382 62494 
L 96686 62494 
L 96686 63718 
L 96510 63718 
L 96510 64766 
L 95757 64766 
L 95757 65907 
L 95331 65907 
L 95331 67165 
L 95215 67165 
L 95215 68303 
L 94762 68303 
L 94762 69455 
L 94339 69455 
L 94339 70592 
L 93873 70592 
L 93873 71538 
L 93020 71538 
L 93020 72784 
L 92768 72784 
L 92768 73751 
L 91984 73751 
L 91984 74858 
L 91452 74858 
L 91452 75465 
L 90124 75465 
L 90124 76547 
L 89576 76547 
L 89576 77722 
L 89147 77722 
L 89147 78533 
L 88201 78533 
L 88201 79485 
L 87458 79485 
L 87458 80437 
L 86715 80437 
L 86715 81272 
L 85834 81272 
L 85834 82186 
L 85048 82186 
L 85048 83005 
L 84160 83005 
L 84160 84327 
L 83773 84327 
L 83773 85386 
L 83093 85386 
L 83093 85542 
L 81590 85542 
L 81590 86318 
L 80669 86318 
L 80669 87329 
L 79935 87329 
L 79935 88040 
L 78953 88040 
L 78953 88866 
L 78056 88866 
L 78056 89698 
L 77154 89698 
L 77154 89986 
L 75889 89986 
L 75889 91356 
L 75312 91356 
L 75312 91453 
L 73950 91453 
L 73950 91799 
L 72757 91799 
L 72757 92417 
L 71719 92417 
L 71719 93579 
L 70938 93579 
L 70938 93827 
L 69707 93827 
L 69707 94431 
L 68640 94431 
L 68640 95019 
L 67559 95019 
L 67559 95516 
L 66437 95516 
L 66437 95279 
L 65066 95279 
L 65066 95943 
L 64005 95943 
L 64005 96126 
L 62793 96126 
L 62793 96875 
L 61730 96875 
L 61730 97272 
L 60565 97272 
L 60565 97118 
L 59284 97118 
L 59284 96998 
L 58029 96998 
L 58029 97834 
L 56930 97834 
L 56930 98005 
L 55717 98005 
L 55717 97926 
L 54480 97926 
L 54480 98298 
L 53283 98298 
L 53283 97968 
L 52041 97968 
L 52041 98019 
L 50826 98019 
L 50826 98137 
L 49608 98137 
L 49608 98203 
L 48386 98203 
L 48386 97950 
L 47177 97950 
L 47177 97606 
L 45984 97606 
L 45984 97317 
L 44799 97317 
L 44799 97531 
L 43553 97531 
L 43553 96924 
L 42420 96924 
L 42420 97624 
L 41063 97624 
L 41063 96533 
L 40042 96533 
L 40042 96635 
L 38777 96635 
L 38777 96089 
L 37665 96089 
L 37665 95862 
L 36472 95862 
L 36472 95942 
L 35173 95942 
L 35173 95657 
L 33977 95657 
L 33977 94660 
L 33045 94660 
L 33045 94707 
L 31718 94707 
L 31718 94378 
L 30526 94378 
L 30526 93177 
L 29733 93177 
L 29733 93067 
L 28438 93067 
L 28438 92333 
L 27446 92333 
L 27446 91914 
L 26287 91914 
L 26287 91551 
L 25082 91551 
L 25082 90345 
L 24394 90345 
L 24394 90113 
L 23092 90113 
L 23092 89129 
L 22289 89129 
L 22289 88798 
L 21020 88798 
L 21020 87706 
L 20319 87706 
L 20319 87222 
L 19141 87222 
L 19141 86153 
L 18448 86153 
L 18448 85167 
L 17703 85167 
L 17703 84362 
L 16799 84362 
L 16799 83689 
L 15757 83689 
L 15757 82551 
L 15193 82551 
L 15193 81840 
L 14176 81840 
L 14176 80690 
L 13656 80690 
L 13656 79872 
L 12749 79872 
L 12749 79256 
L 11561 79256 
L 11561 78237 
L 10882 78237 
L 10882 77342 
L 10026 77342 
L 10026 76154 
L 9604 76154 
L 9604 75044 
L 9081 75044 
L 9081 74004 
L 8452 74004 
L 8452 72732 
L 8247 72732 
L 8247 71869 
L 7290 71869 
L 7290 70835 
L 6634 70835 
L 6634 69768 
L 6037 69768 
L 6037 68685 
L 5460 68685 
L 5460 67616 
L 4833 67616 
L 4833 66282 
L 4913 66282 
L 4913 65278 
L 4083 65278 
L 4083 63957 
L 4212 63957 
L 4212 62930 
L 3377 62930 
L 3377 61669 
L 3371 61669 
L 3371 60476 
L 3123 60476 
L 3123 59247 
L 3070 59247 
L 3070 58065 
L 2790 58065 
L 2790 56825 
L 2886 56825 
L 2886 55725 
L 1925 55725 
L 1925 54463 
L 2255 54463 
L 2255 53286 
L 1647 53286 
L 1647 52054 
L 1739 52054 
L 1739 50818 
L 2399 50818 
L 2399 50365 
L 94927 50365 
L 94927 48406 
L 2412 48406 
L 2412 47178 
L 2078 47178 
L 2078 45954 
L 2037 45954 
L 2037 44781 
L 2521 44781 
L 2521 43594 
L 2776 43594 
L 2776 42423 
L 3095 42423 
L 3095 41086 
L 2494 41086 
L 2494 39917 
L 2883 39917 
L 2883 38850 
L 3668 38850 
L 3668 37497 
L 3280 37497 
L 3280 36296 
L 3540 36296 
L 3540 35327 
L 4532 35327 
L 4532 34008 
L 4429 34008 
L 4429 33086 
L 5448 33086 
L 5448 31727 
L 5313 31727 
L 5313 30760 
L 6155 30760 
L 6155 29783 
L 6927 29783 
L 6927 28345 
L 6747 28345 
L 6747 27596 
L 7947 27596 
L 7947 26360 
L 8213 26360 
L 8213 25322 
L 8847 25322 
L 8847 24448 
L 9740 24448 
L 9740 23165 
L 9995 23165 
L 9995 22317 
L 10909 22317 
L 10909 21113 
L 11324 21113 
L 11324 20171 
L 12105 20171 
L 12105 19626 
L 13362 19626 
L 13362 18633 
L 14058 18633 
L 14058 17444 
L 14549 17444 
L 14549 16961 
L 15805 16961 
L 15805 15714 
L 16268 15714 
L 16268 15199 
L 17454 15199 
L 17454 13913 
L 17926 13913 
L 17926 13499 
L 19177 13499 
L 19177 12441 
L 19880 12441 
L 19880 11932 
L 21025 11932 
L 21025 11190 
L 21984 11190 
L 21984 10290 
L 22838 10290 
L 22838 9316 
L 23659 9316 
L 23659 8825 
L 24798 8825 
L 24798 8764 
L 26175 8764 
L 26175 7524 
L 26873 7524 
L 26873 7652 
L 28315 7652 
L 28315 6993 
L 29336 6993 
L 29336 6020 
L 30224 6020 
L 30224 5575 
L 31362 5575 
L 31362 5620 
L 32689 5620 
L 32689 4746 
L 33657 4746 
L 33657 4677 
L 34919 4677 
L 34919 4301 
L 36069 4301 
L 36069 4017 
L 37246 4017 
L 37246 3003 
L 38238 3003 
L 38238 2870 
L 39466 2870 
L 39466 2453 
L 40631 2453 
L 40631 2632 
L 41907 2632 
L 41907 2364 
L 43098 2364 
L 43098 2394 
L 44330 2394 
L 44330 2519 
L 45561 2519 
L 45561 2161 
L 46748 2161 
L 46748 2483 
L 47977 2483 
L 47977 2094 
L 49175 2094 
L 49175 1995 
L 50390 1995 
L 50390 2181 
L 51601 2181 
L 51601 2223 
L 52812 2223 
L 52812 2642 
L 53994 2642 
L 53994 1871 
L 55290 1871 
L 55290 2310 
L 56468 2310 
L 56468 2736 
L 57634 2736 
L 57634 2787 
L 58858 2787 
L 58858 2780 
L 60104 2780 
L 60104 3238 
L 61252 3238 
L 61252 4056 
L 62295 4056 
L 62295 3927 
L 63589 3927 
L 63589 4176 
L 64787 4176 
L 64787 4315 
L 66031 4315 
L 66031 5315 
L 66963 5315 
L 66963 5138 
L 68344 5138 
L 68344 6216 
L 69212 6216 
L 69212 6870 
L 70243 6870 
L 70243 7208 
L 71423 7208 
L 71423 7868 
L 72445 7868 
L 72445 8485 
L 73486 8485 
L 73486 8474 
L 74901 8474 
L 74901 9235 
L 75871 9235 
L 75871 10113 
L 76755 10113 
L 76755 10593 
L 77906 10593 
L 77906 11703 
L 78604 11703 
L 78604 12013 
L 79900 12013 
L 79900 13413 
L 80330 13413 
L 80330 13900 
L 81503 13900 
L 81503 14537 
L 82567 14537 
L 82567 15743 
L 83097 15743 
L 83097 16651 
L 83895 16651 
L 83895 17506 
L 84745 17506 
L 84745 17912 
L 86101 17912 
L 86101 18851 
L 86886 18851 
L 86886 20042 
L 87356 20042 
L 87356 20809 
L 88351 20809 
L 88351 21826 
L 89028 21826 
L 89028 23146 
L 89258 23146 
L 89258 23752 
L 90540 23752 
L 90540 24692 
L 91347 24692 
L 91347 26117 
L 91336 26117 
L 91336 27130 
L 92003 27130 
L 92003 27951 
L 93060 27951 
L 93060 29104 
L 93489 29104 
L 93489 30128 
L 94193 30128 
L 94193 31491 
L 94116 31491 
L 94116 32706 
L 94335 32706 
L 94335 33652 
L 95266 33652 
L 95266 34881 
L 95434 34881 
L 95434 36038 
L 95798 36038 
L 95798 37196 
L 96162 37196 
L 96162 38331 
L 96626 38331 
L 96626 39426 
L 97310 39426 
L 97310 40668 
L 97359 40668 
L 97359 41849 
L 97707 41849 
L 97707 43108 
L 97569 43108 
L 97569 44376 
L 97218 44376 
L 97218 45527 
L 97840 45527 
L 97840 46776 
L 97425 46776 
L 97425 47939 
L 98400 47939 
L 98400 49175 
L 97914 49175 
L 97914 50388 
Z" /></svg>
